<?xml version="1.0" encoding="UTF-8" standalone="no"?>
<svg width="32px" height="39px" viewBox="0 0 32 39" version="1.1" xmlns="http://www.w3.org/2000/svg" xmlns:xlink="http://www.w3.org/1999/xlink">
    <!-- Generator: Sketch 39.1 (31720) - http://www.bohemiancoding.com/sketch -->
    <title>iconfont-xiazailiang</title>
    <desc>Created with Sketch.</desc>
    <defs></defs>
    <g id="Page-1" stroke="none" stroke-width="1" fill="none" fill-rule="evenodd">
        <g id="demo" transform="translate(-1154.000000, -59.000000)" fill="#D3219A">
            <g id="head" transform="translate(20.000000, 11.000000)">
                <g id="iconfont-xiazailiang" transform="translate(1134.000000, 48.000000)">
                    <path d="M0.00169437891,38.9936348 L0.00169437891,35.7655293 L32,35.7655293 L32,38.9936348 L0.00169437891,38.9936348 L0.00169437891,38.9936348 L0.00169437891,38.9936348 Z M17.6020426,32.5398604 C16.3029939,33.6373525 15.5097847,33.6596807 14.1247095,32.3862655 C14.1026211,32.391183 0.0164932573,19.0971441 0.0164932573,19.0971441 L1.60040865,16.3967191 L14.4021549,27.6964174 L14.3997397,0.256014349 L17.5995834,0.256014349 L17.6020426,27.6963731 L30.4013736,16.3966748 L31.985333,19.0970998 C31.9853329,19.0970998 17.6069609,32.6067564 17.6020426,32.5398604 L17.6020426,32.5398604 L17.6020426,32.5398604 Z" id="Shape"></path>
                </g>
            </g>
        </g>
    </g>
</svg>